<svg xmlns="http://www.w3.org/2000/svg" width="1440" height="900" viewBox="0 0 1440 900">
  <defs>
    <linearGradient id="bg" x1="0" y1="0" x2="1" y2="1">
      <stop offset="0%" stop-color="#0f172a"/>
      <stop offset="100%" stop-color="#1e293b"/>
    </linearGradient>
    <linearGradient id="head" x1="0" y1="0" x2="1" y2="0">
      <stop offset="0%" stop-color="#2563eb"/>
      <stop offset="100%" stop-color="#14b8a6"/>
    </linearGradient>
    <filter id="shadow" x="-20%" y="-20%" width="140%" height="140%">
      <feDropShadow dx="0" dy="4" stdDeviation="8" flood-color="#000000" flood-opacity="0.25"/>
    </filter>
  </defs>

  <rect x="0" y="0" width="1440" height="900" fill="url(#bg)"/>

  <rect x="40" y="28" width="1360" height="74" rx="18" fill="url(#head)" filter="url(#shadow)"/>
  <text x="76" y="74" font-size="32" font-family="Arial, sans-serif" font-weight="700" fill="#f8fafc">Home Assistant</text>
  <text x="1312" y="74" text-anchor="end" font-size="22" font-family="Arial, sans-serif" fill="#e2e8f0">WM Sprinkler · WMS_66676</text>

  <rect x="40" y="130" width="1360" height="740" rx="20" fill="#0b1220" opacity="0.35"/>

  <!-- Left column -->
  <rect x="70" y="160" width="410" height="160" rx="16" fill="#111827" stroke="#1f2937"/>
  <text x="95" y="198" font-size="28" font-family="Arial, sans-serif" font-weight="700" fill="#f8fafc">Status urządzenia</text>
  <circle cx="106" cy="236" r="8" fill="#22c55e"/>
  <text x="126" y="242" font-size="22" font-family="Arial, sans-serif" fill="#cbd5e1">Online</text>
  <text x="95" y="276" font-size="20" font-family="Arial, sans-serif" fill="#94a3b8">FW: 1.4.2</text>
  <text x="95" y="304" font-size="20" font-family="Arial, sans-serif" fill="#94a3b8">IP: 192.168.1.120</text>

  <rect x="70" y="340" width="410" height="210" rx="16" fill="#111827" stroke="#1f2937"/>
  <text x="95" y="378" font-size="28" font-family="Arial, sans-serif" font-weight="700" fill="#f8fafc">Pogoda</text>
  <text x="95" y="418" font-size="20" font-family="Arial, sans-serif" fill="#cbd5e1">Temperatura: 24.3°C</text>
  <text x="95" y="448" font-size="20" font-family="Arial, sans-serif" fill="#cbd5e1">Wilgotność: 58%</text>
  <text x="95" y="478" font-size="20" font-family="Arial, sans-serif" fill="#cbd5e1">Opad 6h: 0.0 mm</text>
  <text x="95" y="518" font-size="22" font-family="Arial, sans-serif" fill="#38bdf8">Procent podlewania: 100%</text>

  <rect x="70" y="570" width="410" height="130" rx="16" fill="#111827" stroke="#1f2937"/>
  <text x="95" y="608" font-size="28" font-family="Arial, sans-serif" font-weight="700" fill="#f8fafc">Akcje</text>
  <rect x="95" y="628" width="190" height="46" rx="10" fill="#0ea5e9"/>
  <text x="190" y="658" text-anchor="middle" font-size="20" font-family="Arial, sans-serif" font-weight="700" fill="#f8fafc">Odśwież dane</text>

  <!-- Right column zones -->
  <text x="530" y="196" font-size="32" font-family="Arial, sans-serif" font-weight="700" fill="#f8fafc">Strefy</text>

  <rect x="530" y="220" width="390" height="140" rx="16" fill="#111827" stroke="#1f2937"/>
  <text x="560" y="262" font-size="26" font-family="Arial, sans-serif" font-weight="700" fill="#f8fafc">Strefa 1 - Trawnik</text>
  <text x="560" y="294" font-size="20" font-family="Arial, sans-serif" fill="#94a3b8">Pozostały czas: 412 s</text>
  <rect x="760" y="304" width="130" height="38" rx="9" fill="#22c55e"/>
  <text x="825" y="330" text-anchor="middle" font-size="20" font-family="Arial, sans-serif" font-weight="700" fill="#022c22">WŁĄCZONA</text>

  <rect x="950" y="220" width="390" height="140" rx="16" fill="#111827" stroke="#1f2937"/>
  <text x="980" y="262" font-size="26" font-family="Arial, sans-serif" font-weight="700" fill="#f8fafc">Strefa 2 - Krzewy</text>
  <text x="980" y="294" font-size="20" font-family="Arial, sans-serif" fill="#94a3b8">Pozostały czas: 0 s</text>
  <rect x="1180" y="304" width="130" height="38" rx="9" fill="#334155"/>
  <text x="1245" y="330" text-anchor="middle" font-size="20" font-family="Arial, sans-serif" font-weight="700" fill="#cbd5e1">WYŁĄCZONA</text>

  <rect x="530" y="385" width="390" height="140" rx="16" fill="#111827" stroke="#1f2937"/>
  <text x="560" y="427" font-size="26" font-family="Arial, sans-serif" font-weight="700" fill="#f8fafc">Strefa 3 - Tuje</text>
  <text x="560" y="459" font-size="20" font-family="Arial, sans-serif" fill="#94a3b8">Pozostały czas: 0 s</text>
  <rect x="760" y="469" width="130" height="38" rx="9" fill="#334155"/>
  <text x="825" y="495" text-anchor="middle" font-size="20" font-family="Arial, sans-serif" font-weight="700" fill="#cbd5e1">WYŁĄCZONA</text>

  <rect x="950" y="385" width="390" height="140" rx="16" fill="#111827" stroke="#1f2937"/>
  <text x="980" y="427" font-size="26" font-family="Arial, sans-serif" font-weight="700" fill="#f8fafc">Strefa 4 - Grządki</text>
  <text x="980" y="459" font-size="20" font-family="Arial, sans-serif" fill="#94a3b8">Pozostały czas: 0 s</text>
  <rect x="1180" y="469" width="130" height="38" rx="9" fill="#334155"/>
  <text x="1245" y="495" text-anchor="middle" font-size="20" font-family="Arial, sans-serif" font-weight="700" fill="#cbd5e1">WYŁĄCZONA</text>

  <rect x="530" y="550" width="810" height="150" rx="16" fill="#111827" stroke="#1f2937"/>
  <text x="560" y="592" font-size="28" font-family="Arial, sans-serif" font-weight="700" fill="#f8fafc">Historia i diagnostyka</text>
  <text x="560" y="626" font-size="20" font-family="Arial, sans-serif" fill="#94a3b8">• MQTT połączony (TLS 8883)</text>
  <text x="560" y="654" font-size="20" font-family="Arial, sans-serif" fill="#94a3b8">• Ostatnia synchronizacja: 2026-02-14 16:20</text>
  <text x="560" y="682" font-size="20" font-family="Arial, sans-serif" fill="#94a3b8">• Tryb fail-safe: aktywny lokalnie przy utracie internetu</text>

  <text x="1380" y="886" text-anchor="end" font-size="18" font-family="Arial, sans-serif" fill="#94a3b8">Podgląd poglądowy WM Sprinkler w Home Assistant</text>
</svg>
